<svg xmlns="http://www.w3.org/2000/svg" width="1024" height="1024" viewBox="0 0 1024 1024">
  <g fill="none" fill-rule="evenodd" transform="translate(76 55)">
    <polygon fill="#777777" fill-rule="nonzero" points="871 849 0 412 871 412"/>
    <polygon fill="#7D7D7D" fill-rule="nonzero" points="0 412 436 412 436 944"/>
    <polygon fill="#4F4F4F" fill-rule="nonzero" points="871 412 436 412 436 944"/>
    <polygon fill="#575757" fill-rule="nonzero" points="0 412 436 412 436 630"/>
    <polygon fill="#424242" fill-rule="nonzero" points="0 412 436 412 436 480"/>
    <polygon fill="#2E2E2E" fill-rule="nonzero" points="871 412 436 412 436 630"/>
    <polygon fill="#1B1B1B" fill-rule="nonzero" points="871 412 436 412 436 480"/>
    <polygon fill="#898989" points="229 527 436 944 436 630"/>
    <polygon fill="#A2A2A2" points="84.996 455 436 630 436 706"/>
    <polygon fill="#666666" points="436 832.996 202.996 658.996 436 944"/>
    <polygon fill="#606060" points="436 630 436 943.996 643 527"/>
    <polygon fill="#404040" points="436 832.996 669 659 436 944"/>
    <polygon fill="#7D7D7D" points="435.996 706 436 630 787 455"/>
    <polygon fill="#1B1B1B" fill-rule="nonzero" points="439.92 716 435 694.551 430.08 716 394.44 716 372 609 410.88 609 414.48 629.596 418.92 609 450.72 609 455.4 630.083 459.12 609 498 609 475.56 716"/>
    <path fill="#FFFFFF" fill-rule="nonzero" d="M488.75367,619.244118 L469.800979,707.755882 L447.830343,707.755882 L435.758564,657.35 L423.686786,707.755882 L402.199021,707.755882 L383.24633,619.244118 L404.492659,619.244118 L414.632953,674.714706 L426.704731,619.244118 L444.812398,619.244118 L456.884176,674.714706 L467.02447,619.244118 L488.270799,619.244118 L488.75367,619.244118 Z M509.517129,602 L362,602 L366.466558,622.741176 L385.298532,711.373529 L388.316476,725 L483.442088,725 L486.339315,711.373529 L505.533442,622.741176 L510,602 L509.517129,602 Z"/>
    <polygon fill="#F0B697" fill-rule="nonzero" points="267 387 339 509 436 509 436 83 267 83"/>
    <polygon fill="#E88F61" fill-rule="nonzero" points="605 387 532 509 436 509 436 83 605 83"/>
    <polygon fill="#EDD2C4" points="436 408 436 388 511 388 511 408"/>
    <polygon fill="#FFFDFC" points="361 408 361 388 436 388 436 408"/>
    <path fill="#2E2E2E" fill-rule="nonzero" d="M436,295 L436,0 C381.247401,0 343.221788,18.5309857 321.923162,55.5929571 L267,0 L267,295 L436,295 Z"/>
    <path fill="#1A1919" fill-rule="nonzero" d="M550.076838,55.5929571 C528.778212,18.5309857 490.752599,0 436,0 L436,295 L605,295 L605,0 L550.076838,55.5929571 Z"/>
    <path fill="#FFFFFF" fill-rule="nonzero" d="M507 255C507 268.254834 496.254834 279 483 279 469.745166 279 459 268.254834 459 255 459 241.745166 469.745166 231 483 231 496.254834 231 507 241.745166 507 255zM412 255C412 268.254834 401.254834 279 388 279 374.745166 279 364 268.254834 364 255 364 241.745166 374.745166 231 388 231 401.254834 231 412 241.745166 412 255z"/>
  </g>
</svg>
