<svg xmlns="http://www.w3.org/2000/svg" width="1024" height="1024" viewBox="0 0 1024 1024">
  <g fill="none" fill-rule="evenodd" transform="translate(76 25)">
    <polygon fill="#F44336" fill-rule="nonzero" points="871 879 0 442 871 442"/>
    <polygon fill="#2196F3" fill-rule="nonzero" points="0 442 436 442 436 974"/>
    <polygon fill="#0F52EB" fill-rule="nonzero" points="871 442 436 442 436 974"/>
    <polygon fill="#3F51B5" fill-rule="nonzero" points="0 442 436 442 436 660"/>
    <polygon fill="#2B3DA0" fill-rule="nonzero" points="0 442 436 442 436 510"/>
    <polygon fill="#1E248C" fill-rule="nonzero" points="871 442 436 442 436 660"/>
    <polygon fill="#0F1461" fill-rule="nonzero" points="871 442 436 442 436 510"/>
    <polygon fill="#F0B697" fill-rule="nonzero" points="267 417 339 539 436 539 436 113 267 113"/>
    <polygon fill="#E88F61" fill-rule="nonzero" points="605 417 532 539 436 539 436 113 605 113"/>
    <path fill="#000000" fill-rule="nonzero" d="M507 285C507 298.254834 496.254834 309 483 309 469.745166 309 459 298.254834 459 285 459 271.745166 469.745166 261 483 261 496.254834 261 507 271.745166 507 285zM412 285C412 298.254834 401.254834 309 388 309 374.745166 309 364 298.254834 364 285 364 271.745166 374.745166 261 388 261 401.254834 261 412 271.745166 412 285zM524.463635 114.495139C499.386529 145.999226 467.42084 171.409225 430.992756 188.796523 428.568363 190.635769 427.103366 193.460742 427.002408 196.491165 427.016214 211.271155 420.194026 225.236588 408.501703 234.363229 403.520056 237.761107 397.803299 239.944129 391.814793 240.735355 383.471338 241.817414 378.755473 235.685746 380.327428 227.029274 385.406053 232.439569 390.847436 233.641857 396.28882 228.111333 400.639562 221.285842 400.203878 212.477549 395.200543 206.109467 393.749508 204.78695 390.121918 205.267865 387.824445 206.109467 360.533991 214.873307 331.676135 217.742605 303.1807 214.525481 302.330371 219.732378 301.118273 224.874449 299.553111 229.914765 296.679266 239.594283 292.872814 248.975518 288.186665 257.92807 281.173326 268.989117 271.016077 268.387973 264.002738 257.92807 254.850435 243.503999 249.794636 226.886104 249.371462 209.836559 248.042065 192.396379 247.678757 174.896682 248.283185 157.416812 250.55818 132.694343 261.267628 109.488771 278.634014 91.651671 305.325757 61.2388295 338.66396 37.3033722 376.095241 21.6785227 407.619855 6.81211008 442.178266-.595044182 477.063137.0373428578 492.54244.396434012 507.696962 4.52463614 521.198804 12.0602206 531.249166 17.3843462 539.2744 25.8281376 544.052616 36.105976 545.472957 39.163353 547.966775 41.6001714 551.065955 42.9590163 584.797865 60.2495424 606.255554 94.5611748 606.930827 132.288998 607.600726 141.243253 603.367679 149.862053 595.853774 154.842703 588.339869 159.823353 578.710244 160.393533 570.654936 156.334753 555.565942 150.425166 542.59688 140.167807 533.411688 126.878703 530.267777 123.392068 527.607545 119.184061 524.463635 114.495139z"/>
    <polygon fill="#25A8F5" points="229 557 436 974 436 660"/>
    <polygon fill="#41C2FF" points="84.996 485 436 660 436 736"/>
    <polygon fill="#1775EF" points="436 862.996 202.996 688.996 436 974"/>
    <polygon fill="#1C65FF" points="436 660 436 973.996 643 557"/>
    <polygon fill="#0C3BE8" points="436 862.996 669 689 436 974"/>
    <polygon fill="#4880FF" points="435.996 736 436 660 787 485"/>
    <polygon fill="#F44336" fill-rule="nonzero" points="439.92 746 435 724.551 430.08 746 394.44 746 372 639 410.88 639 414.48 659.596 418.92 639 450.72 639 455.4 660.083 459.12 639 498 639 475.56 746"/>
    <path fill="#FFC107" fill-rule="nonzero" d="M488.75367,649.244118 L469.800979,737.755882 L447.830343,737.755882 L435.758564,687.35 L423.686786,737.755882 L402.199021,737.755882 L383.24633,649.244118 L404.492659,649.244118 L414.632953,704.714706 L426.704731,649.244118 L444.812398,649.244118 L456.884176,704.714706 L467.02447,649.244118 L488.270799,649.244118 L488.75367,649.244118 Z M509.517129,632 L362,632 L366.466558,652.741176 L385.298532,741.373529 L388.316476,755 L483.442088,755 L486.339315,741.373529 L505.533442,652.741176 L510,632 L509.517129,632 Z"/>
    <path fill="#FFFDFC" d="M436,459 L435.996094,418 L363,418 C369.894219,429.732211 379.227552,439.065544 391,446 C402.772448,452.934456 417.772448,457.267789 436,459 Z"/>
    <path fill="#EDD2C4" d="M436,459 L436,418 L509,418 C501.75784,430.250163 492.424506,439.583496 481,446 C469.575494,452.416504 454.575494,456.749837 436,459 Z"/>
  </g>
</svg>
