<svg xmlns="http://www.w3.org/2000/svg" width="1024" height="1024" viewBox="0 0 1024 1024">
  <g fill="none" fill-rule="evenodd" transform="translate(76 46)">
    <polygon fill="#FFB508" fill-rule="nonzero" points="871 858 0 421 871 421"/>
    <polygon fill="#FF4545" fill-rule="nonzero" points="0 421 436 421 436 953"/>
    <polygon fill="#E80D0D" fill-rule="nonzero" points="871 421 436 421 436 953"/>
    <polygon fill="#A93333" fill-rule="nonzero" points="0 421 436 421 436 639"/>
    <polygon fill="#941F1F" fill-rule="nonzero" points="0 421 436 421 436 489"/>
    <polygon fill="#7A0C0C" fill-rule="nonzero" points="871 421 436 421 436 639"/>
    <polygon fill="#540202" fill-rule="nonzero" points="871 421 436 421 436 489"/>
    <polygon fill="#FF7A7A" points="229 536 436 953 436 639"/>
    <polygon fill="#FF7A7A" points="84.996 464 436 639 436 715"/>
    <polygon fill="#FD2625" points="436 841.996 202.996 667.996 436 953"/>
    <polygon fill="#FF1D1C" points="436 639 436 952.996 643 536"/>
    <polygon fill="#D50101" points="436 841.996 669 668 436 953"/>
    <polygon fill="#FD4646" points="435.996 715 436 639 787 464"/>
    <path fill="#F0B697" fill-rule="nonzero" d="M307,416 C357.401693,457.333333 388.068359,481.333333 399,488 C409.931641,494.666667 422.264974,498 436,498 L436,92 L287,92 L307,416 Z"/>
    <path fill="#E88F61" fill-rule="nonzero" d="M565,416 C514.598307,457.333333 483.931641,481.333333 473,488 C462.068359,494.666667 449.735026,498 436,498 L436,92 L585,92 L565,416 Z"/>
    <path fill="#000000" fill-rule="nonzero" d="M507 264C507 277.254834 496.254834 288 483 288 469.745166 288 459 277.254834 459 264 459 250.745166 469.745166 240 483 240 496.254834 240 507 250.745166 507 264zM412 264C412 277.254834 401.254834 288 388 288 374.745166 288 364 277.254834 364 264 364 250.745166 374.745166 240 388 240 401.254834 240 412 250.745166 412 264z"/>
    <polygon fill="#F44336" fill-rule="nonzero" points="439.92 725 435 703.551 430.08 725 394.44 725 372 618 410.88 618 414.48 638.596 418.92 618 450.72 618 455.4 639.083 459.12 618 498 618 475.56 725"/>
    <path fill="#FFC107" fill-rule="nonzero" d="M488.75367,628.244118 L469.800979,716.755882 L447.830343,716.755882 L435.758564,666.35 L423.686786,716.755882 L402.199021,716.755882 L383.24633,628.244118 L404.492659,628.244118 L414.632953,683.714706 L426.704731,628.244118 L444.812398,628.244118 L456.884176,683.714706 L467.02447,628.244118 L488.270799,628.244118 L488.75367,628.244118 Z M509.517129,611 L362,611 L366.466558,631.741176 L385.298532,720.373529 L388.316476,734 L483.442088,734 L486.339315,720.373529 L505.533442,631.741176 L510,611 L509.517129,611 Z"/>
    <path fill="#FFFDFC" d="M436,438 L435.996094,397 L363,397 C369.894219,408.732211 379.227552,418.065544 391,425 C402.772448,431.934456 417.772448,436.267789 436,438 Z"/>
    <path fill="#EDD2C4" d="M436,438 L436,397 L509,397 C501.75784,409.250163 492.424506,418.583496 481,425 C469.575494,431.416504 454.575494,435.749837 436,438 Z"/>
    <path fill="#6A322D" d="M436,0 L436,173.63555 L377.320706,173.63555 C377.317026,168.312791 377.648573,163.156673 378.315348,158.167195 C378.982122,153.177718 381.96453,146.026458 387.262571,136.713416 C379.636339,141.535928 374.000038,146.858687 370.353667,152.681693 C366.707296,158.5047 364.718013,165.489319 364.385818,173.63555 L321.620787,173.63555 L321.620787,153.67764 C310.675403,185.702498 305.202712,226.449249 305.202712,275.917893 C305.202712,325.386537 320.639037,391.747239 351.511688,475 C285.305354,441.339081 243.721393,405.08091 226.759804,366.225489 C201.31742,307.942358 227.957607,199.205227 235.727074,173.63555 C249.676161,127.728458 283.437045,75.8357212 326.329362,37.9178606 C354.924241,12.6392869 391.48112,-6.62923924e-14 436,0 Z"/>
    <path fill="#5B2622" d="M436,0 L436,173.63555 L494.679294,173.63555 C494.682974,168.312791 494.351427,163.156673 493.684652,158.167195 C493.017878,153.177718 490.03547,146.026458 484.737429,136.713416 C492.363661,141.535928 497.999962,146.858687 501.646333,152.681693 C505.292704,158.5047 507.281987,165.489319 507.614182,173.63555 L550.379213,173.63555 L550.379213,153.67764 C561.324597,185.702498 566.797288,226.449249 566.797288,275.917893 C566.797288,325.386537 551.360963,391.747239 520.488312,475 C586.694646,441.339081 628.278607,405.08091 645.240196,366.225489 C670.68258,307.942358 644.042393,199.205227 636.272926,173.63555 C622.323839,127.728458 588.562955,75.8357212 545.670638,37.9178606 C517.075759,12.6392869 480.51888,-6.62923924e-14 436,0 Z"/>
    <circle cx="436" cy="763" r="190" fill="#FFB508"/>
    <circle cx="436" cy="763" r="140" fill="#FFFFFF"/>
    <circle cx="436" cy="763" r="90" fill="#FFB508"/>
    <circle cx="436" cy="763" r="50" fill="#FFFFFF"/>
  </g>
</svg>
